<?xml version="1.0" encoding="UTF-8" standalone="no"?>
<!DOCTYPE svg PUBLIC "-//W3C//DTD SVG 1.1//EN"
 "http://www.w3.org/Graphics/SVG/1.1/DTD/svg11.dtd">
<!-- Generated by graphviz version 2.40.1 (20161225.0304)
 -->
<!-- Title: dependencies Pages: 1 -->
<svg width="3801pt" height="284pt"
 viewBox="0.00 0.00 3801.00 284.00" xmlns="http://www.w3.org/2000/svg" xmlns:xlink="http://www.w3.org/1999/xlink">
<g id="graph0" class="graph" transform="scale(1 1) rotate(0) translate(4 280)">
<title>dependencies</title>
<polygon fill="#ffffff" stroke="transparent" points="-4,4 -4,-280 3797,-280 3797,4 -4,4"/>
<text text-anchor="start" x="1875.5091" y="-42.4" font-family="sans-serif" font-weight="bold" font-size="14.00" fill="#000000">Legend</text>
<polygon fill="#ffffb3" stroke="transparent" points="1662.5,-10 1662.5,-30 1682.5,-30 1682.5,-10 1662.5,-10"/>
<text text-anchor="start" x="1686.129" y="-15.4" font-family="sans-serif" font-size="14.00" fill="#000000"> &#160;Declarations</text>
<polygon fill="#8dd3c7" stroke="transparent" points="1775.5,-10 1775.5,-30 1795.5,-30 1795.5,-10 1775.5,-10"/>
<text text-anchor="start" x="1799.2251" y="-15.4" font-family="sans-serif" font-size="14.00" fill="#000000"> &#160;Module</text>
<polygon fill="#80b1d3" stroke="transparent" points="1861.5,-10 1861.5,-30 1881.5,-30 1881.5,-10 1861.5,-10"/>
<text text-anchor="start" x="1885.2812" y="-15.4" font-family="sans-serif" font-size="14.00" fill="#000000"> &#160;Bootstrap</text>
<polygon fill="#fdb462" stroke="transparent" points="1958.5,-10 1958.5,-30 1978.5,-30 1978.5,-10 1958.5,-10"/>
<text text-anchor="start" x="1982.1732" y="-15.4" font-family="sans-serif" font-size="14.00" fill="#000000"> &#160;Providers</text>
<polygon fill="#fb8072" stroke="transparent" points="2054.5,-10 2054.5,-30 2074.5,-30 2074.5,-10 2054.5,-10"/>
<text text-anchor="start" x="2078.2258" y="-15.4" font-family="sans-serif" font-size="14.00" fill="#000000"> &#160;Exports</text>
<g id="clust1" class="cluster">
<title>cluster_AppModule</title>
<polygon fill="none" stroke="#000000" stroke-dasharray="1,5" points="8,-70 8,-268 3785,-268 3785,-70 8,-70"/>
</g>
<g id="clust2" class="cluster">
<title>cluster_AppModule_declarations</title>
<polygon fill="none" stroke="#000000" points="791,-78 791,-130 3777,-130 3777,-78 791,-78"/>
</g>
<g id="clust23" class="cluster">
<title>cluster_AppModule_bootstrap</title>
<polygon fill="none" stroke="#000000" points="1787,-208 1787,-260 1911,-260 1911,-208 1787,-208"/>
</g>
<g id="clust24" class="cluster">
<title>cluster_AppModule_providers</title>
<polygon fill="none" stroke="#000000" points="16,-78 16,-130 783,-130 783,-78 16,-78"/>
</g>
<!-- ActionItemComponent -->
<g id="node1" class="node">
<title>ActionItemComponent</title>
<polygon fill="#ffffb3" stroke="#000000" points="3768.5912,-122 3623.4088,-122 3623.4088,-86 3768.5912,-86 3768.5912,-122"/>
<text text-anchor="middle" x="3696" y="-99.8" font-family="Times,serif" font-size="14.00" fill="#000000">ActionItemComponent</text>
</g>
<!-- AppModule -->
<g id="node19" class="node">
<title>AppModule</title>
<polygon fill="#8dd3c7" stroke="#000000" points="1890.6571,-187 1887.6571,-191 1866.6571,-191 1863.6571,-187 1807.3429,-187 1807.3429,-151 1890.6571,-151 1890.6571,-187"/>
<text text-anchor="middle" x="1849" y="-164.8" font-family="Times,serif" font-size="14.00" fill="#000000">AppModule</text>
</g>
<!-- ActionItemComponent&#45;&gt;AppModule -->
<g id="edge1" class="edge">
<title>ActionItemComponent&#45;&gt;AppModule</title>
<path fill="none" stroke="#000000" d="M3696,-122.1532C3696,-145.7566 3696,-184 3696,-184 3696,-184 1901.0475,-184 1901.0475,-184"/>
<polygon fill="#000000" stroke="#000000" points="1901.0475,-180.5001 1891.0475,-184 1901.0474,-187.5001 1901.0475,-180.5001"/>
</g>
<!-- ActionItemTimelineComponent -->
<g id="node2" class="node">
<title>ActionItemTimelineComponent</title>
<polygon fill="#ffffb3" stroke="#000000" points="3605.6357,-122 3410.3643,-122 3410.3643,-86 3605.6357,-86 3605.6357,-122"/>
<text text-anchor="middle" x="3508" y="-99.8" font-family="Times,serif" font-size="14.00" fill="#000000">ActionItemTimelineComponent</text>
</g>
<!-- ActionItemTimelineComponent&#45;&gt;AppModule -->
<g id="edge2" class="edge">
<title>ActionItemTimelineComponent&#45;&gt;AppModule</title>
<path fill="none" stroke="#000000" d="M3508,-122.2479C3508,-145.0179 3508,-181 3508,-181 3508,-181 1900.8389,-181 1900.8389,-181"/>
<polygon fill="#000000" stroke="#000000" points="1900.839,-177.5001 1890.8389,-181 1900.8389,-184.5001 1900.839,-177.5001"/>
</g>
<!-- AppComponent -->
<g id="node3" class="node">
<title>AppComponent</title>
<polygon fill="#ffffb3" stroke="#000000" points="3391.9399,-122 3286.0601,-122 3286.0601,-86 3391.9399,-86 3391.9399,-122"/>
<text text-anchor="middle" x="3339" y="-99.8" font-family="Times,serif" font-size="14.00" fill="#000000">AppComponent</text>
</g>
<!-- AppComponent&#45;&gt;AppModule -->
<g id="edge3" class="edge">
<title>AppComponent&#45;&gt;AppModule</title>
<path fill="none" stroke="#000000" d="M3339,-122.2921C3339,-144.2057 3339,-178 3339,-178 3339,-178 1900.7986,-178 1900.7986,-178"/>
<polygon fill="#000000" stroke="#000000" points="1900.7986,-174.5001 1890.7986,-178 1900.7986,-181.5001 1900.7986,-174.5001"/>
</g>
<!-- CreateWorkflowComponent -->
<g id="node4" class="node">
<title>CreateWorkflowComponent</title>
<polygon fill="#ffffb3" stroke="#000000" points="3268.8975,-122 3093.1025,-122 3093.1025,-86 3268.8975,-86 3268.8975,-122"/>
<text text-anchor="middle" x="3181" y="-99.8" font-family="Times,serif" font-size="14.00" fill="#000000">CreateWorkflowComponent</text>
</g>
<!-- CreateWorkflowComponent&#45;&gt;AppModule -->
<g id="edge4" class="edge">
<title>CreateWorkflowComponent&#45;&gt;AppModule</title>
<path fill="none" stroke="#000000" d="M3181,-122.0267C3181,-142.7672 3181,-174 3181,-174 3181,-174 1900.6937,-174 1900.6937,-174"/>
<polygon fill="#000000" stroke="#000000" points="1900.6937,-170.5001 1890.6937,-174 1900.6936,-177.5001 1900.6937,-170.5001"/>
</g>
<!-- FilelengthPipe -->
<g id="node5" class="node">
<title>FilelengthPipe</title>
<polygon fill="#ffffb3" stroke="#000000" points="3074.6626,-122 2977.3374,-122 2977.3374,-86 3074.6626,-86 3074.6626,-122"/>
<text text-anchor="middle" x="3026" y="-99.8" font-family="Times,serif" font-size="14.00" fill="#000000">FilelengthPipe</text>
</g>
<!-- FilelengthPipe&#45;&gt;AppModule -->
<g id="edge5" class="edge">
<title>FilelengthPipe&#45;&gt;AppModule</title>
<path fill="none" stroke="#000000" d="M3026,-122.308C3026,-142.1455 3026,-171 3026,-171 3026,-171 1900.8901,-171 1900.8901,-171"/>
<polygon fill="#000000" stroke="#000000" points="1900.8901,-167.5001 1890.8901,-171 1900.89,-174.5001 1900.8901,-167.5001"/>
</g>
<!-- ItemAttachmentComponent -->
<g id="node6" class="node">
<title>ItemAttachmentComponent</title>
<polygon fill="#ffffb3" stroke="#000000" points="2959.3019,-122 2786.6981,-122 2786.6981,-86 2959.3019,-86 2959.3019,-122"/>
<text text-anchor="middle" x="2873" y="-99.8" font-family="Times,serif" font-size="14.00" fill="#000000">ItemAttachmentComponent</text>
</g>
<!-- ItemAttachmentComponent&#45;&gt;AppModule -->
<g id="edge6" class="edge">
<title>ItemAttachmentComponent&#45;&gt;AppModule</title>
<path fill="none" stroke="#000000" d="M2873,-122.1686C2873,-141.0898 2873,-168 2873,-168 2873,-168 1900.7301,-168 1900.7301,-168"/>
<polygon fill="#000000" stroke="#000000" points="1900.7302,-164.5001 1890.7301,-168 1900.7301,-171.5001 1900.7302,-164.5001"/>
</g>
<!-- NoPermissionComponent -->
<g id="node7" class="node">
<title>NoPermissionComponent</title>
<polygon fill="#ffffb3" stroke="#000000" points="2769.1582,-122 2608.8418,-122 2608.8418,-86 2769.1582,-86 2769.1582,-122"/>
<text text-anchor="middle" x="2689" y="-99.8" font-family="Times,serif" font-size="14.00" fill="#000000">NoPermissionComponent</text>
</g>
<!-- NoPermissionComponent&#45;&gt;AppModule -->
<g id="edge7" class="edge">
<title>NoPermissionComponent&#45;&gt;AppModule</title>
<path fill="none" stroke="#000000" d="M2689,-122.302C2689,-140.2699 2689,-165 2689,-165 2689,-165 1900.9431,-165 1900.9431,-165"/>
<polygon fill="#000000" stroke="#000000" points="1900.9432,-161.5001 1890.9431,-165 1900.9431,-168.5001 1900.9432,-161.5001"/>
</g>
<!-- PageNotFoundComponent -->
<g id="node8" class="node">
<title>PageNotFoundComponent</title>
<polygon fill="#ffffb3" stroke="#000000" points="2590.8243,-122 2425.1757,-122 2425.1757,-86 2590.8243,-86 2590.8243,-122"/>
<text text-anchor="middle" x="2508" y="-99.8" font-family="Times,serif" font-size="14.00" fill="#000000">PageNotFoundComponent</text>
</g>
<!-- PageNotFoundComponent&#45;&gt;AppModule -->
<g id="edge8" class="edge">
<title>PageNotFoundComponent&#45;&gt;AppModule</title>
<path fill="none" stroke="#000000" d="M2508,-122.0352C2508,-138.7344 2508,-161 2508,-161 2508,-161 1900.7233,-161 1900.7233,-161"/>
<polygon fill="#000000" stroke="#000000" points="1900.7234,-157.5001 1890.7233,-161 1900.7233,-164.5001 1900.7234,-157.5001"/>
</g>
<!-- PhoneCallMinutesComponent -->
<g id="node9" class="node">
<title>PhoneCallMinutesComponent</title>
<polygon fill="#ffffb3" stroke="#000000" points="2407.5476,-122 2222.4524,-122 2222.4524,-86 2407.5476,-86 2407.5476,-122"/>
<text text-anchor="middle" x="2315" y="-99.8" font-family="Times,serif" font-size="14.00" fill="#000000">PhoneCallMinutesComponent</text>
</g>
<!-- PhoneCallMinutesComponent&#45;&gt;AppModule -->
<g id="edge9" class="edge">
<title>PhoneCallMinutesComponent&#45;&gt;AppModule</title>
<path fill="none" stroke="#000000" d="M2315,-122.2819C2315,-137.9478 2315,-158 2315,-158 2315,-158 1900.7645,-158 1900.7645,-158"/>
<polygon fill="#000000" stroke="#000000" points="1900.7645,-154.5001 1890.7645,-158 1900.7645,-161.5001 1900.7645,-154.5001"/>
</g>
<!-- PhoneMeetingsComponent -->
<g id="node10" class="node">
<title>PhoneMeetingsComponent</title>
<polygon fill="#ffffb3" stroke="#000000" points="2204.4297,-122 2035.5703,-122 2035.5703,-86 2204.4297,-86 2204.4297,-122"/>
<text text-anchor="middle" x="2120" y="-99.8" font-family="Times,serif" font-size="14.00" fill="#000000">PhoneMeetingsComponent</text>
</g>
<!-- PhoneMeetingsComponent&#45;&gt;AppModule -->
<g id="edge10" class="edge">
<title>PhoneMeetingsComponent&#45;&gt;AppModule</title>
<path fill="none" stroke="#000000" d="M2120,-122.1243C2120,-136.7832 2120,-155 2120,-155 2120,-155 1900.7498,-155 1900.7498,-155"/>
<polygon fill="#000000" stroke="#000000" points="1900.7499,-151.5001 1890.7498,-155 1900.7498,-158.5001 1900.7499,-151.5001"/>
</g>
<!-- RFRWorkflowComponent -->
<g id="node11" class="node">
<title>RFRWorkflowComponent</title>
<polygon fill="#ffffb3" stroke="#000000" points="2017.8215,-122 1852.1785,-122 1852.1785,-86 2017.8215,-86 2017.8215,-122"/>
<text text-anchor="middle" x="1935" y="-99.8" font-family="Times,serif" font-size="14.00" fill="#000000">RFRWorkflowComponent</text>
</g>
<!-- RFRWorkflowComponent&#45;&gt;AppModule -->
<g id="edge11" class="edge">
<title>RFRWorkflowComponent&#45;&gt;AppModule</title>
<path fill="none" stroke="#000000" d="M1871.5838,-122.1061C1871.5838,-122.1061 1871.5838,-140.991 1871.5838,-140.991"/>
<polygon fill="#000000" stroke="#000000" points="1868.0839,-140.9909 1871.5838,-150.991 1875.0839,-140.991 1868.0839,-140.9909"/>
</g>
<!-- ReadMoreComponent -->
<g id="node12" class="node">
<title>ReadMoreComponent</title>
<polygon fill="#ffffb3" stroke="#000000" points="1834.4186,-122 1693.5814,-122 1693.5814,-86 1834.4186,-86 1834.4186,-122"/>
<text text-anchor="middle" x="1764" y="-99.8" font-family="Times,serif" font-size="14.00" fill="#000000">ReadMoreComponent</text>
</g>
<!-- ReadMoreComponent&#45;&gt;AppModule -->
<g id="edge12" class="edge">
<title>ReadMoreComponent&#45;&gt;AppModule</title>
<path fill="none" stroke="#000000" d="M1820.6904,-122.1061C1820.6904,-122.1061 1820.6904,-140.991 1820.6904,-140.991"/>
<polygon fill="#000000" stroke="#000000" points="1817.1905,-140.9909 1820.6904,-150.991 1824.1905,-140.991 1817.1905,-140.9909"/>
</g>
<!-- SideBarComponent -->
<g id="node13" class="node">
<title>SideBarComponent</title>
<polygon fill="#ffffb3" stroke="#000000" points="1676.4327,-122 1549.5673,-122 1549.5673,-86 1676.4327,-86 1676.4327,-122"/>
<text text-anchor="middle" x="1613" y="-99.8" font-family="Times,serif" font-size="14.00" fill="#000000">SideBarComponent</text>
</g>
<!-- SideBarComponent&#45;&gt;AppModule -->
<g id="edge13" class="edge">
<title>SideBarComponent&#45;&gt;AppModule</title>
<path fill="none" stroke="#000000" d="M1613,-122.1243C1613,-136.7832 1613,-155 1613,-155 1613,-155 1797.0799,-155 1797.0799,-155"/>
<polygon fill="#000000" stroke="#000000" points="1797.0799,-158.5001 1807.0799,-155 1797.0798,-151.5001 1797.0799,-158.5001"/>
</g>
<!-- SiteFooterComponent -->
<g id="node14" class="node">
<title>SiteFooterComponent</title>
<polygon fill="#ffffb3" stroke="#000000" points="1531.6596,-122 1392.3404,-122 1392.3404,-86 1531.6596,-86 1531.6596,-122"/>
<text text-anchor="middle" x="1462" y="-99.8" font-family="Times,serif" font-size="14.00" fill="#000000">SiteFooterComponent</text>
</g>
<!-- SiteFooterComponent&#45;&gt;AppModule -->
<g id="edge14" class="edge">
<title>SiteFooterComponent&#45;&gt;AppModule</title>
<path fill="none" stroke="#000000" d="M1462,-122.2819C1462,-137.9478 1462,-158 1462,-158 1462,-158 1797.2165,-158 1797.2165,-158"/>
<polygon fill="#000000" stroke="#000000" points="1797.2166,-161.5001 1807.2165,-158 1797.2165,-154.5001 1797.2166,-161.5001"/>
</g>
<!-- SiteHeaderComponent -->
<g id="node15" class="node">
<title>SiteHeaderComponent</title>
<polygon fill="#ffffb3" stroke="#000000" points="1373.5226,-122 1230.4774,-122 1230.4774,-86 1373.5226,-86 1373.5226,-122"/>
<text text-anchor="middle" x="1302" y="-99.8" font-family="Times,serif" font-size="14.00" fill="#000000">SiteHeaderComponent</text>
</g>
<!-- SiteHeaderComponent&#45;&gt;AppModule -->
<g id="edge15" class="edge">
<title>SiteHeaderComponent&#45;&gt;AppModule</title>
<path fill="none" stroke="#000000" d="M1302,-122.0352C1302,-138.7344 1302,-161 1302,-161 1302,-161 1796.9861,-161 1796.9861,-161"/>
<polygon fill="#000000" stroke="#000000" points="1796.9861,-164.5001 1806.9861,-161 1796.9861,-157.5001 1796.9861,-164.5001"/>
</g>
<!-- SiteLayoutComponent -->
<g id="node16" class="node">
<title>SiteLayoutComponent</title>
<polygon fill="#ffffb3" stroke="#000000" points="1212.2688,-122 1069.7312,-122 1069.7312,-86 1212.2688,-86 1212.2688,-122"/>
<text text-anchor="middle" x="1141" y="-99.8" font-family="Times,serif" font-size="14.00" fill="#000000">SiteLayoutComponent</text>
</g>
<!-- SiteLayoutComponent&#45;&gt;AppModule -->
<g id="edge16" class="edge">
<title>SiteLayoutComponent&#45;&gt;AppModule</title>
<path fill="none" stroke="#000000" d="M1141,-122.302C1141,-140.2699 1141,-165 1141,-165 1141,-165 1797.0935,-165 1797.0935,-165"/>
<polygon fill="#000000" stroke="#000000" points="1797.0935,-168.5001 1807.0935,-165 1797.0934,-161.5001 1797.0935,-168.5001"/>
</g>
<!-- SiteNavbarComponent -->
<g id="node17" class="node">
<title>SiteNavbarComponent</title>
<polygon fill="#ffffb3" stroke="#000000" points="1051.3075,-122 906.6925,-122 906.6925,-86 1051.3075,-86 1051.3075,-122"/>
<text text-anchor="middle" x="979" y="-99.8" font-family="Times,serif" font-size="14.00" fill="#000000">SiteNavbarComponent</text>
</g>
<!-- SiteNavbarComponent&#45;&gt;AppModule -->
<g id="edge17" class="edge">
<title>SiteNavbarComponent&#45;&gt;AppModule</title>
<path fill="none" stroke="#000000" d="M979,-122.1686C979,-141.0898 979,-168 979,-168 979,-168 1797.3312,-168 1797.3312,-168"/>
<polygon fill="#000000" stroke="#000000" points="1797.3312,-171.5001 1807.3312,-168 1797.3312,-164.5001 1797.3312,-171.5001"/>
</g>
<!-- TruncatePipe -->
<g id="node18" class="node">
<title>TruncatePipe</title>
<polygon fill="#ffffb3" stroke="#000000" points="889.1361,-122 798.8639,-122 798.8639,-86 889.1361,-86 889.1361,-122"/>
<text text-anchor="middle" x="844" y="-99.8" font-family="Times,serif" font-size="14.00" fill="#000000">TruncatePipe</text>
</g>
<!-- TruncatePipe&#45;&gt;AppModule -->
<g id="edge18" class="edge">
<title>TruncatePipe&#45;&gt;AppModule</title>
<path fill="none" stroke="#000000" d="M844,-122.308C844,-142.1455 844,-171 844,-171 844,-171 1797.0959,-171 1797.0959,-171"/>
<polygon fill="#000000" stroke="#000000" points="1797.0959,-174.5001 1807.0959,-171 1797.0959,-167.5001 1797.0959,-174.5001"/>
</g>
<!-- AppComponent  -->
<g id="node20" class="node">
<title>AppComponent </title>
<polygon fill="#80b1d3" stroke="#000000" points="1903.439,-252 1794.561,-252 1794.561,-216 1903.439,-216 1903.439,-252"/>
<text text-anchor="middle" x="1849" y="-229.8" font-family="Times,serif" font-size="14.00" fill="#000000">AppComponent </text>
</g>
<!-- AppModule&#45;&gt;AppComponent  -->
<g id="edge19" class="edge">
<title>AppModule&#45;&gt;AppComponent </title>
<path fill="none" stroke="#000000" stroke-dasharray="1,5" d="M1849,-187.1061C1849,-187.1061 1849,-205.991 1849,-205.991"/>
<polygon fill="#000000" stroke="#000000" points="1845.5001,-205.9909 1849,-215.991 1852.5001,-205.991 1845.5001,-205.9909"/>
</g>
<!-- BroadcastService -->
<g id="node21" class="node">
<title>BroadcastService</title>
<ellipse fill="#fdb462" stroke="#000000" cx="696" cy="-104" rx="78.7066" ry="18"/>
<text text-anchor="middle" x="696" y="-99.8" font-family="Times,serif" font-size="14.00" fill="#000000">BroadcastService</text>
</g>
<!-- BroadcastService&#45;&gt;AppModule -->
<g id="edge20" class="edge">
<title>BroadcastService&#45;&gt;AppModule</title>
<path fill="none" stroke="#000000" d="M696,-122.0267C696,-142.7672 696,-174 696,-174 696,-174 1797.283,-174 1797.283,-174"/>
<polygon fill="#000000" stroke="#000000" points="1797.283,-177.5001 1807.283,-174 1797.2829,-170.5001 1797.283,-177.5001"/>
</g>
<!-- CommonService -->
<g id="node22" class="node">
<title>CommonService</title>
<ellipse fill="#fdb462" stroke="#000000" cx="523" cy="-104" rx="75.8836" ry="18"/>
<text text-anchor="middle" x="523" y="-99.8" font-family="Times,serif" font-size="14.00" fill="#000000">CommonService</text>
</g>
<!-- CommonService&#45;&gt;AppModule -->
<g id="edge21" class="edge">
<title>CommonService&#45;&gt;AppModule</title>
<path fill="none" stroke="#000000" d="M523,-122.2921C523,-144.2057 523,-178 523,-178 523,-178 1797.1254,-178 1797.1254,-178"/>
<polygon fill="#000000" stroke="#000000" points="1797.1254,-181.5001 1807.1254,-178 1797.1254,-174.5001 1797.1254,-181.5001"/>
</g>
<!-- MyBreadcrumbsResolver -->
<g id="node23" class="node">
<title>MyBreadcrumbsResolver</title>
<ellipse fill="#fdb462" stroke="#000000" cx="319" cy="-104" rx="110.0141" ry="18"/>
<text text-anchor="middle" x="319" y="-99.8" font-family="Times,serif" font-size="14.00" fill="#000000">MyBreadcrumbsResolver</text>
</g>
<!-- MyBreadcrumbsResolver&#45;&gt;AppModule -->
<g id="edge22" class="edge">
<title>MyBreadcrumbsResolver&#45;&gt;AppModule</title>
<path fill="none" stroke="#000000" d="M319,-122.2479C319,-145.0179 319,-181 319,-181 319,-181 1797.2827,-181 1797.2827,-181"/>
<polygon fill="#000000" stroke="#000000" points="1797.2827,-184.5001 1807.2827,-181 1797.2827,-177.5001 1797.2827,-184.5001"/>
</g>
<!-- RfrHttpInterceptor -->
<g id="node24" class="node">
<title>RfrHttpInterceptor</title>
<ellipse fill="#fdb462" stroke="#000000" cx="107" cy="-104" rx="83.3616" ry="18"/>
<text text-anchor="middle" x="107" y="-99.8" font-family="Times,serif" font-size="14.00" fill="#000000">RfrHttpInterceptor</text>
</g>
<!-- RfrHttpInterceptor&#45;&gt;AppModule -->
<g id="edge23" class="edge">
<title>RfrHttpInterceptor&#45;&gt;AppModule</title>
<path fill="none" stroke="#000000" d="M107,-122.1532C107,-145.7566 107,-184 107,-184 107,-184 1797.2308,-184 1797.2308,-184"/>
<polygon fill="#000000" stroke="#000000" points="1797.2308,-187.5001 1807.2308,-184 1797.2307,-180.5001 1797.2308,-187.5001"/>
</g>
</g>
</svg>
